<?xml version="1.0" encoding="UTF-8" standalone="no"?>
<!-- Created with Inkscape (http://www.inkscape.org/) -->

<svg
   xmlns="http://www.w3.org/2000/svg"
   viewBox="0 0 33.866666 33.866666">
   <style>
      @media (prefers-color-scheme: dark) {
         .primary { fill: #eee8d5; stroke: #657b83 }
      }
   </style>
   <path
      class="primary"
      fill="#073642"
      stroke="#839496"
      d="m 22.463656,11.196464 q 0,5.20671 -3.254194,7.720295 -3.231751,2.491142 -8.842431,2.491142 H 6.6190969 V 32.449718 H 1.4123861 V 1.4787664 h 8.5955609 q 5.969764,0 9.201515,2.4462564 3.254194,2.4238136 3.254194,7.2714412 z m -5.476023,0.04488 q 0,-5.8575495 -6.643045,-5.8575495 H 6.6190969 V 17.43554 h 3.7928191 q 3.141981,0 4.847628,-1.436334 1.728089,-1.436334 1.728089,-4.757857 z"
   />
   <path
      class="primary"
      fill="#073642"
      stroke="#839496"
      d="m 32.639434,26.17949 v 1.95541 l -8.790693,4.577044 v -2.49185 l 6.004666,-3.062899 -6.004666,-3.054246 V 21.65436 Z M 16.373191,24.241385 q 0,-0.484526 0.250915,-0.899835 0.242264,-0.415308 0.666224,-0.666223 0.415308,-0.250916 0.908487,-0.250916 0.493179,0 0.908487,0.250916 0.415308,0.250915 0.657572,0.666223 0.242263,0.415309 0.242263,0.899835 0,0.484526 -0.242263,0.899835 -0.242264,0.415308 -0.657572,0.666223 -0.415308,0.242264 -0.908487,0.242264 -0.493179,0 -0.908487,-0.242264 -0.42396,-0.250915 -0.666224,-0.666223 -0.250915,-0.415309 -0.250915,-0.899835 z m 0,5.978709 q 0,-0.484526 0.250915,-0.891182 0.242264,-0.415308 0.666224,-0.657572 0.415308,-0.242263 0.908487,-0.242263 0.493179,0 0.908487,0.242263 0.415308,0.242264 0.657572,0.657572 0.242263,0.406656 0.242263,0.891182 0,0.493179 -0.242263,0.91714 -0.242264,0.415308 -0.657572,0.666223 -0.415308,0.242264 -0.908487,0.242264 -0.493179,0 -0.908487,-0.242264 -0.42396,-0.250915 -0.666224,-0.666223 -0.250915,-0.423961 -0.250915,-0.91714 z"
   />
</svg>
