<svg xmlns="http://www.w3.org/2000/svg" viewBox="0 0 33.867 33.867"><style>@media (prefers-color-scheme:dark){.primary{fill:#eee8d5;stroke:#657b83}}</style><path class="primary" fill="#073642" stroke="#839496" d="M22.464 11.196q0 5.207-3.255 7.72-3.231 2.492-8.842 2.492H6.619V32.45H1.412V1.479h8.596q5.97 0 9.201 2.446 3.255 2.424 3.255 7.271zm-5.476.045q0-5.857-6.643-5.857H6.619v12.052h3.793q3.142 0 4.848-1.437 1.728-1.436 1.728-4.758zM32.64 26.18v1.955l-8.791 4.577V30.22l6.004-3.063-6.004-3.054v-2.449Zm-16.268-1.94q0-.484.251-.9.242-.415.666-.666.416-.25.909-.25.493 0 .908.25.416.251.658.667.242.415.242.9 0 .484-.242.9-.242.415-.658.665-.415.243-.908.243-.493 0-.909-.243-.424-.25-.666-.666-.25-.415-.25-.9zm0 5.98q0-.485.251-.892.242-.415.666-.658.416-.242.909-.242.493 0 .908.242.416.243.658.658.242.407.242.891 0 .493-.242.917-.242.416-.658.666-.415.243-.908.243-.493 0-.909-.243-.424-.25-.666-.666-.25-.424-.25-.917z"/></svg>