<?xml version="1.0" encoding="UTF-8" standalone="no"?>
<!-- Created with Inkscape (http://www.inkscape.org/) -->

<svg
   width="210mm"
   height="297mm"
   viewBox="0 0 210 297"
   version="1.1"
   id="svg5"
   inkscape:version="1.1 (c4e8f9e, 2021-05-24)"
   sodipodi:docname="website_home_banner.svg"
   xmlns:inkscape="http://www.inkscape.org/namespaces/inkscape"
   xmlns:sodipodi="http://sodipodi.sourceforge.net/DTD/sodipodi-0.dtd"
   xmlns="http://www.w3.org/2000/svg"
   xmlns:svg="http://www.w3.org/2000/svg">
  <sodipodi:namedview
     id="namedview7"
     pagecolor="#505050"
     bordercolor="#eeeeee"
     borderopacity="1"
     inkscape:pageshadow="0"
     inkscape:pageopacity="0"
     inkscape:pagecheckerboard="0"
     inkscape:document-units="mm"
     showgrid="false"
     inkscape:zoom="1.7817059"
     inkscape:cx="331.14331"
     inkscape:cy="490.82173"
     inkscape:window-width="1532"
     inkscape:window-height="974"
     inkscape:window-x="0"
     inkscape:window-y="25"
     inkscape:window-maximized="0"
     inkscape:current-layer="layer1" />
  <defs
     id="defs2">
    <inkscape:perspective
       sodipodi:type="inkscape:persp3d"
       inkscape:vp_x="0 : 148.5 : 1"
       inkscape:vp_y="0 : 1000 : 0"
       inkscape:vp_z="210 : 148.5 : 1"
       inkscape:persp3d-origin="105 : 99 : 1"
       id="perspective13014" />
    <rect
       x="110.00693"
       y="343.49102"
       width="606.16063"
       height="175.11307"
       id="rect2082" />
  </defs>
  <g
     inkscape:label="Layer 1"
     inkscape:groupmode="layer"
     id="layer1">
    <g
       aria-label="Plabajo"
       transform="matrix(0.26458333,0,0,0.26458333,36.234,25.542)"
       id="text2080"
       style="font-size:96px;line-height:1.25;white-space:pre;shape-inside:url(#rect2082);fill:#27a2c1;fill-opacity:1">
      <path
         d="m 162.42381,382.88194 q 0,6.144 -2.208,10.176 -2.112,3.936 -5.568,6.24 -3.36,2.304 -7.68,3.264 -4.224,0.864 -8.448,0.864 h -9.12 v 21.6 l 8.448,3.552 v 2.496 h -25.536 v -2.496 l 8.544,-3.552 v -54.336 l -8.448,-3.456 v -2.496 l 28.416,-0.096 q 1.248,0 3.36,0 2.112,0 4.512,0.48 2.4,0.384 4.8,1.44 2.496,0.96 4.416,2.976 2.016,2.016 3.264,5.28 1.248,3.264 1.248,8.064 z m -33.024,14.304 h 8.256 q 2.976,0 5.856,-0.48 2.88,-0.576 5.184,-2.112 2.304,-1.536 3.648,-4.224 1.44,-2.784 1.44,-7.296 0,-4.32 -1.44,-6.816 -1.344,-2.496 -3.456,-3.84 -2.112,-1.344 -4.8,-1.728 -2.592,-0.384 -4.992,-0.384 -2.784,0 -5.664,0.096 -2.88,0 -4.032,0.096 z"
         style="font-family:Contra;-inkscape-font-specification:Contra;fill:#27a2c1;fill-opacity:1"
         id="path12321" />
      <path
         d="m 166.22031,362.81794 17.088,-3.936 v 66.144 l 9.024,3.552 v 2.496 h -25.536 v -2.496 l 8.448,-3.552 v -57.408 l -9.024,-2.592 z"
         style="font-family:Contra;-inkscape-font-specification:Contra;fill:#27a2c1;fill-opacity:1"
         id="path12323" />
      <path
         d="m 223.01781,425.40994 q -2.688,3.072 -5.856,4.896 -3.072,1.824 -7.392,1.824 -6.336,0 -9.984,-3.744 -3.648,-3.744 -3.648,-10.176 0,-5.088 2.688,-8.16 2.784,-3.168 6.816,-4.896 4.128,-1.728 8.832,-2.4 4.704,-0.768 8.64,-1.152 -0.096,0 -0.096,-0.864 0.096,-0.96 0.096,-2.016 v -2.88 q 0,-1.728 -0.864,-3.168 -0.768,-1.44 -2.112,-2.496 -1.248,-1.152 -2.976,-1.728 -1.632,-0.672 -3.36,-0.672 -3.072,0 -5.472,0.48 -2.304,0.48 -4.8,2.208 l -3.456,8.256 h -2.496 v -10.944 h 0.096 q 2.208,-1.632 4.128,-2.784 1.92,-1.152 3.936,-1.824 2.112,-0.768 4.416,-1.056 2.4,-0.384 5.472,-0.384 2.88,0 5.568,0.96 2.784,0.864 4.896,2.592 2.112,1.632 3.36,4.032 1.248,2.304 1.152,5.088 v 28.992 l 7.968,2.592 v 2.208 l -15.552,4.032 z m 0,-18.624 q -2.976,0.192 -6.336,0.672 -3.36,0.384 -6.24,1.536 -2.784,1.152 -4.704,3.36 -1.824,2.112 -1.824,5.76 0,4.032 2.112,6.24 2.208,2.112 6.144,2.112 1.728,0 3.264,-0.576 1.536,-0.672 2.88,-1.632 1.344,-0.96 2.496,-2.208 1.152,-1.248 2.208,-2.496 v -12.768 z"
         style="font-family:Contra;-inkscape-font-specification:Contra;fill:#27a2c1;fill-opacity:1"
         id="path12325" />
      <path
         d="m 256.46631,309.59444 0,79.6235 c 1.856,-2.176 3.872,-3.872 6.048,-5.088 2.176,-1.28 4.704,-1.92 7.584,-1.92 3.584,0 6.688,0.64 9.312,1.92 2.624,1.28 4.768,2.976 6.432,5.088 1.728,2.112 3.008,4.576 3.84,7.392 0.832,2.816 1.248,5.76 1.248,8.832 0,3.264 -0.416,6.496 -1.248,9.696 -0.832,3.136 -2.144,5.984 -3.936,8.544 -1.792,2.496 -4.064,4.544 -6.816,6.144 -2.688,1.536 -5.92,2.304 -9.696,2.304 -3.008,0 -5.536,-0.352 -7.584,-1.056 -2.048,-0.704 -3.904,-1.856 -5.568,-3.456 l -7.488,3.456 0,-112.9355 -9.024,-2.688 v -2.112 z m 26.112,96.0395 c 0,-2.176 -0.32,-4.288 -0.96,-6.336 -0.576,-2.112 -1.472,-3.968 -2.688,-5.568 -1.152,-1.664 -2.624,-2.976 -4.416,-3.936 -1.792,-1.024 -3.84,-1.536 -6.144,-1.536 -2.816,0 -5.184,0.864 -7.104,2.592 -1.856,1.728 -3.456,3.776 -4.8,6.144 v 22.944 c 1.344,2.112 3.136,3.712 5.376,4.8 2.24,1.024 4.512,1.536 6.816,1.536 2.752,0 5.024,-0.704 6.816,-2.112 1.792,-1.408 3.2,-3.136 4.224,-5.184 1.088,-2.048 1.824,-4.256 2.208,-6.624 0.448,-2.432 0.672,-4.672 0.672,-6.72 z"
         style="font-family:Contra;-inkscape-font-specification:Contra;fill:#27a2c1;fill-opacity:1"
         id="path12327"
         sodipodi:nodetypes="cccsscsscccssccccccscccsccccssccs" />
      <path
         d="m 324.08031,425.40994 q -2.688,3.072 -5.856,4.896 -3.072,1.824 -7.392,1.824 -6.336,0 -9.984,-3.744 -3.648,-3.744 -3.648,-10.176 0,-5.088 2.688,-8.16 2.784,-3.168 6.816,-4.896 4.128,-1.728 8.832,-2.4 4.704,-0.768 8.64,-1.152 -0.096,0 -0.096,-0.864 0.096,-0.96 0.096,-2.016 v -2.88 q 0,-1.728 -0.864,-3.168 -0.768,-1.44 -2.112,-2.496 -1.248,-1.152 -2.976,-1.728 -1.632,-0.672 -3.36,-0.672 -3.072,0 -5.472,0.48 -2.304,0.48 -4.8,2.208 l -3.456,8.256 h -2.496 v -10.944 h 0.096 q 2.208,-1.632 4.128,-2.784 1.92,-1.152 3.936,-1.824 2.112,-0.768 4.416,-1.056 2.4,-0.384 5.472,-0.384 2.88,0 5.568,0.96 2.784,0.864 4.896,2.592 2.112,1.632 3.36,4.032 1.248,2.304 1.152,5.088 v 28.992 l 7.968,2.592 v 2.208 l -15.552,4.032 z m 0,-18.624 q -2.976,0.192 -6.336,0.672 -3.36,0.384 -6.24,1.536 -2.784,1.152 -4.704,3.36 -1.824,2.112 -1.824,5.76 0,4.032 2.112,6.24 2.208,2.112 6.144,2.112 1.728,0 3.264,-0.576 1.536,-0.672 2.88,-1.632 1.344,-0.96 2.496,-2.208 1.152,-1.248 2.208,-2.496 v -12.768 z"
         style="font-family:Contra;-inkscape-font-specification:Contra;fill:#27a2c1;fill-opacity:1"
         id="path12329" />
      <path
         d="m 359.83281,435.00994 c 0,3.008 -0.32,5.824 -0.96,8.448 -0.64,2.624 -1.696,4.896 -3.168,6.816 -1.408,1.92 -3.328,3.424 -5.76,4.512 -2.368,1.088 -5.344,1.632 -8.928,1.632 l -245.447626,-0.096 v -5.76 l 245.351626,0 c 2.304,0 4.16,-0.416 5.568,-1.248 1.408,-0.832 2.496,-1.952 3.264,-3.36 0.768,-1.408 1.28,-3.04 1.536,-4.896 0.32,-1.856 0.48,-3.808 0.48,-5.856 v -45.024 l -8.448,-2.4 v -2.304 l 16.512,-3.84 z m 1.152,-69.6 c 0,3.648 -2.016,5.472 -6.048,5.472 -3.968,0 -5.952,-1.728 -5.952,-5.184 0,-3.52 1.984,-5.28 5.952,-5.28 4.032,0 6.048,1.664 6.048,4.992 z"
         style="font-family:Contra;-inkscape-font-specification:Contra;fill:#27a2c1;fill-opacity:1"
         id="path12331"
         sodipodi:nodetypes="sscccccssscsccccssssss" />
    </g>
  </g>
</svg>
