<?xml version="1.0" encoding="UTF-8" standalone="no"?>
<!-- Created with Inkscape (http://www.inkscape.org/) -->

<svg
   width="178.10808mm"
   height="70.617805mm"
   viewBox="0 0 178.10808 70.617805"
   version="1.1"
   id="svg40294"
   xmlns="http://www.w3.org/2000/svg"
   xmlns:svg="http://www.w3.org/2000/svg">
  <defs
     id="defs40291" />
  <g
     id="layer1"
     transform="translate(-3.7019213,-51.487798)">
    <g
       aria-label="Plabajo"
       id="text41105"
       style="font-size:50.8px;line-height:1.25;stroke-width:0.264583">
      <path
         d="m 36.182395,95.334001 q 2.1082,0 3.7084,-0.5588 1.6256,-0.5588 2.7178,-1.5494 1.1176,-1.016 1.6764,-2.413 0.5588,-1.397 0.5588,-3.0734 0,-3.4798 -2.159,-5.4356 -2.1336,-1.9558 -6.5024,-1.9558 h -5.842 v 14.986 z m 0,-18.8722 q 3.4544,0 5.9944,0.8128 2.5654,0.7874 4.2418,2.2606 1.6764,1.4732 2.4892,3.556 0.8382,2.0828 0.8382,4.6482 0,2.54 -0.889,4.6482 -0.889,2.1082 -2.6162,3.6322 -1.7018,1.524 -4.2418,2.3876 -2.5146,0.8382 -5.8166,0.8382 h -5.842 V 112.86 h -4.9022 V 76.461801 Z"
         style="font-family:Lato;-inkscape-font-specification:Lato;fill:#333333;fill-opacity:1"
         id="path44810" />
      <path
         id="path44812"
         style="font-family:Lato;-inkscape-font-specification:Lato;fill:#49aa49;fill-opacity:1;stroke-width:0.999999"
         d="m 191.33008,219.3125 v 0 c 0,0 12.70742,33.92422 15.73242,78.54291 v 128.70123 h 17.08789 C 210.17445,377.09517 237.92717,321.57996 191.33008,219.3125 Z"
         transform="scale(0.26458333)" />
      <path
         d="m 80.583184,101.2776 q -3.1242,0.1016 -5.334,0.508 -2.1844,0.381 -3.5814,1.016 -1.3716,0.635 -2.0066,1.4986 -0.6096,0.8636 -0.6096,1.9304 0,1.016 0.3302,1.7526 0.3302,0.7366 0.889,1.2192 0.5842,0.4572 1.3462,0.6858 0.7874,0.2032 1.6764,0.2032 1.1938,0 2.1844,-0.2286 0.9906,-0.254 1.8542,-0.7112 0.889,-0.4572 1.6764,-1.0922 0.8128,-0.635 1.5748,-1.4478 z m -14.605,-10.515599 q 2.1336,-2.0574 4.5974,-3.0734 2.4638,-1.016 5.461,-1.016 2.159,0 3.8354,0.7112 1.6764,0.7112 2.8194,1.9812 1.143,1.27 1.7272,3.0734 0.5842,1.8034 0.5842,3.9624 V 112.86 h -2.0066 q -0.6604,0 -1.016,-0.2032 -0.3556,-0.2286 -0.5588,-0.8636 l -0.508,-2.4384 q -1.016,0.9398 -1.9812,1.6764 -0.9652,0.7112 -2.032,1.2192 -1.0668,0.4826 -2.286,0.7366 -1.1938,0.2794 -2.667,0.2794 -1.4986,0 -2.8194,-0.4064 -1.3208,-0.4318 -2.3114,-1.27 -0.9652,-0.8382 -1.5494,-2.1082 -0.5588,-1.2954 -0.5588,-3.048 0,-1.524 0.8382,-2.921 0.8382,-1.4224 2.7178,-2.5146 1.8796,-1.092199 4.9022,-1.777999 3.0226,-0.7112 7.4168,-0.8128 v -2.0066 q 0,-2.9972 -1.2954,-4.5212 -1.2954,-1.5494 -3.7846,-1.5494 -1.6764,0 -2.8194,0.4318 -1.1176,0.4064 -1.9558,0.9398 -0.8128,0.508 -1.4224,0.9398 -0.5842,0.4064 -1.1684,0.4064 -0.4572,0 -0.7874,-0.2286 -0.3302,-0.254 -0.5588,-0.6096 z"
         style="font-family:Lato;-inkscape-font-specification:Lato;fill:#333333;fill-opacity:1"
         id="path44814" />
      <path
         d="m 96.386745,106.6624 q 1.2446,1.6764 2.7178,2.3622 1.498605,0.6858 3.276595,0.6858 3.6322,0 5.5626,-2.5654 1.9304,-2.5654 1.9304,-7.645399 0,-4.7244 -1.7272,-6.9342 -1.7018,-2.2352 -4.8768,-2.2352 -2.20979,0 -3.860795,1.016 -1.6256,1.016 -3.0226,2.8702 z m 0,-15.824199 q 1.6256,-1.8796 3.657605,-2.9972 2.05739,-1.1176 4.72439,-1.1176 2.2606,0 4.064,0.8636 1.8288,0.8636 3.0988,2.5146 1.27,1.6256 1.9304,3.9624 0.6858,2.3368 0.6858,5.2578 0,3.124199 -0.762,5.689599 -0.762,2.5654 -2.2098,4.3942 -1.4224,1.8034 -3.4798,2.8194 -2.0574,0.9906 -4.6228,0.9906 -2.53999,0 -4.292595,-0.9398 -1.7272,-0.9652 -3.0226,-2.7178 l -0.2286,2.3368 q -0.2032,0.9652 -1.1684,0.9652 h -2.921 V 75.445801 h 4.5466 z"
         style="font-family:Lato;-inkscape-font-specification:Lato;fill:#333333;fill-opacity:1"
         id="path44816" />
      <path
         d="m 134.26053,101.2776 q -3.1242,0.1016 -5.334,0.508 -2.1844,0.381 -3.5814,1.016 -1.3716,0.635 -2.0066,1.4986 -0.6096,0.8636 -0.6096,1.9304 0,1.016 0.3302,1.7526 0.3302,0.7366 0.889,1.2192 0.5842,0.4572 1.3462,0.6858 0.7874,0.2032 1.6764,0.2032 1.1938,0 2.1844,-0.2286 0.9906,-0.254 1.8542,-0.7112 0.889,-0.4572 1.6764,-1.0922 0.8128,-0.635 1.5748,-1.4478 z m -14.605,-10.515599 q 2.1336,-2.0574 4.5974,-3.0734 2.4638,-1.016 5.461,-1.016 2.159,0 3.8354,0.7112 1.6764,0.7112 2.8194,1.9812 1.143,1.27 1.7272,3.0734 0.5842,1.8034 0.5842,3.9624 V 112.86 h -2.0066 q -0.6604,0 -1.016,-0.2032 -0.3556,-0.2286 -0.5588,-0.8636 l -0.508,-2.4384 q -1.016,0.9398 -1.9812,1.6764 -0.9652,0.7112 -2.032,1.2192 -1.0668,0.4826 -2.286,0.7366 -1.1938,0.2794 -2.667,0.2794 -1.4986,0 -2.8194,-0.4064 -1.3208,-0.4318 -2.3114,-1.27 -0.9652,-0.8382 -1.5494,-2.1082 -0.5588,-1.2954 -0.5588,-3.048 0,-1.524 0.8382,-2.921 0.8382,-1.4224 2.7178,-2.5146 1.8796,-1.092199 4.9022,-1.777999 3.0226,-0.7112 7.4168,-0.8128 v -2.0066 q 0,-2.9972 -1.2954,-4.5212 -1.2954,-1.5494 -3.7846,-1.5494 -1.6764,0 -2.8194,0.4318 -1.1176,0.4064 -1.9558,0.9398 -0.8128,0.508 -1.4224,0.9398 -0.5842,0.4064 -1.1684,0.4064 -0.4572,0 -0.7874,-0.2286 -0.3302,-0.254 -0.5588,-0.6096 z"
         style="font-family:Lato;-inkscape-font-specification:Lato;fill:#333333;fill-opacity:1"
         id="path44818" />
      <path
         d="M 150.29269,87.129801 V 114.765 c 0,1.03293 -0.13547,1.98967 -0.4064,2.8702 -0.27093,0.89747 -0.70273,1.6764 -1.2954,2.3368 -0.59267,0.6604 -1.35467,1.17687 -2.286,1.5494 -0.9144,0.38947 -2.01507,0.5842 -3.302,0.5842 -0.54187,0 -1.0414,-0.0423 -1.4986,-0.127 -0.4572,-0.0847 -137.3451687,-0.21167 -137.8023687,-0.381 l 0.1778,-1.18408 c 0,0 136.5238987,-1.52525 136.6085687,-1.60992 0.0677,-0.0677 0.16933,-0.11007 0.3048,-0.127 0.13547,-0.0169 0.31327,-0.0254 0.5334,-0.0254 0.2032,0.0169 0.46567,0.0254 0.7874,0.0254 1.3208,0 2.2606,-0.31327 2.8194,-0.9398 0.5588,-0.6096 0.8382,-1.6002 0.8382,-2.9718 V 87.129801 Z m 0.9398,-8.0772 c 0,0.440267 -0.0931,0.855133 -0.2794,1.2446 -0.16933,0.372533 -0.4064,0.7112 -0.7112,1.016 -0.28787,0.287867 -0.62653,0.516467 -1.016,0.6858 -0.38947,0.169333 -0.80433,0.254 -1.2446,0.254 -0.44027,0 -0.85513,-0.08467 -1.2446,-0.254 -0.37253,-0.169333 -0.70273,-0.397933 -0.9906,-0.6858 -0.28787,-0.3048 -0.51647,-0.643467 -0.6858,-1.016 -0.16933,-0.389467 -0.254,-0.804333 -0.254,-1.2446 0,-0.440267 0.0847,-0.855133 0.254,-1.2446 0.16933,-0.4064 0.39793,-0.753533 0.6858,-1.0414 0.28787,-0.3048 0.61807,-0.541867 0.9906,-0.7112 0.38947,-0.169333 0.80433,-0.254 1.2446,-0.254 0.44027,0 0.85513,0.08467 1.2446,0.254 0.38947,0.169333 0.72813,0.4064 1.016,0.7112 0.3048,0.287867 0.54187,0.635 0.7112,1.0414 0.18627,0.389467 0.2794,0.804333 0.2794,1.2446 z"
         style="font-family:Lato;-inkscape-font-specification:Lato;fill:#333333;fill-opacity:1"
         id="path44820" />
      <path
         d="m 168.5672,86.723401 c 1.8796,0 3.57293,0.313267 5.08,0.9398 1.50707,0.626533 2.794,1.515533 3.8608,2.667 1.0668,1.151467 1.8796,2.548467 2.4384,4.191 0.57573,1.6256 0.8636,3.445933 0.8636,5.461 0,2.031999 -0.28787,3.860799 -0.8636,5.486399 -0.5588,1.6256 -1.3716,3.01413 -2.4384,4.1656 -1.0668,1.15147 -2.35373,2.04047 -3.8608,2.667 -1.50707,0.6096 -3.2004,0.9144 -5.08,0.9144 -1.89653,0 -3.6068,-0.3048 -5.1308,-0.9144 -1.50707,-0.62653 -2.794,-1.51553 -3.8608,-2.667 -1.0668,-1.15147 -1.88807,-2.54 -2.4638,-4.1656 -0.5588,-1.6256 -0.8382,-3.4544 -0.8382,-5.486399 0,-2.015067 0.2794,-3.8354 0.8382,-5.461 0.57573,-1.642533 1.397,-3.039533 2.4638,-4.191 1.0668,-1.151467 2.35373,-2.040467 3.8608,-2.667 1.524,-0.626533 3.23427,-0.9398 5.1308,-0.9398 z"
         style="font-family:Lato;-inkscape-font-specification:Lato;fill:#ff3131;fill-opacity:1;stroke:#333333;stroke-width:2;stroke-miterlimit:4;stroke-dasharray:none;stroke-opacity:1"
         id="path44822" />
    </g>
    <path
       style="fill:#49aa49;fill-opacity:1;stroke:none;stroke-width:0.264583px;stroke-linecap:butt;stroke-linejoin:miter;stroke-opacity:1"
       d="m 52.86573,63.954308 c 0,0 -4.806386,-0.961276 -7.209578,-4.165533 -2.403195,-3.204258 -3.364471,-6.248303 -3.364471,-7.690218 7.00672,-3.401226 13.877791,8.353863 10.574049,11.855751 z"
       id="path48159" />
    <path
       style="fill:#49aa49;fill-opacity:1;stroke:none;stroke-width:0.264583px;stroke-linecap:butt;stroke-linejoin:miter;stroke-opacity:1"
       d="m 56.555148,73.537715 c 0,0 1.602129,-10.574052 8.81171,-13.29767 7.209578,-2.723618 11.535325,0.480639 11.535325,0.480639 0,0 -0.320424,8.811707 -6.728939,10.734262 -6.408515,1.922555 -11.054691,2.082769 -13.618096,2.082769 z"
       id="path48506" />
  </g>
</svg>
