<?xml version="1.0" encoding="UTF-8" standalone="no"?>
<!-- Created with Inkscape (http://www.inkscape.org/) -->

<svg
   width="210mm"
   height="297mm"
   viewBox="0 0 210 297"
   version="1.1"
   id="svg5"
   xmlns="http://www.w3.org/2000/svg"
   xmlns:svg="http://www.w3.org/2000/svg">
  <defs
     id="defs2">
    <rect
       x="230.70192"
       y="384.10059"
       width="260.89851"
       height="115.95489"
       id="rect10704" />
    <linearGradient
       id="linearGradient4034">
      <stop
         style="stop-color:#000000;stop-opacity:1;"
         offset="0"
         id="stop4032" />
    </linearGradient>
  </defs>
  <g
     id="layer1">
    <rect
       style="fill:#f7f7f7;fill-opacity:1;stroke:none;stroke-width:0.963042;stroke-miterlimit:4;stroke-dasharray:none;stroke-opacity:1"
       id="rect9124"
       width="164.584"
       height="164.58397"
       x="22.370628"
       y="131.87675" />
    <path
       id="path3923"
       style="fill:#88d052;fill-opacity:1;stroke:none;stroke-width:4.7811;stroke-linecap:butt;stroke-linejoin:miter;stroke-miterlimit:4;stroke-dasharray:none;stroke-opacity:1"
       d="m 281.21484,640.47266 c 91.24927,144.11539 84.73539,461.68934 100.6096,434.52614 0,0 5.68731,-333.61136 -100.6096,-434.52614 z"
       transform="scale(0.26458333)" />
    <path
       style="fill:#88d052;fill-opacity:1;stroke:none;stroke-width:0.264583px;stroke-linecap:butt;stroke-linejoin:miter;stroke-opacity:1"
       d="m 51.985347,161.63913 c 0,0 20.717077,-10.15596 26.205599,3.51539 12.538399,31.23188 -26.205599,-3.51539 -26.205599,-3.51539 z"
       id="path6804" />
    <circle
       style="mix-blend-mode:normal;fill:#ff2727;fill-opacity:1;stroke:none;stroke-width:1.165;stroke-miterlimit:4;stroke-dasharray:none;stroke-opacity:1"
       id="path7869"
       cx="140.13608"
       cy="240.48438"
       r="19.973785" />
    <path
       style="fill:#88d052;fill-opacity:1;stroke:none;stroke-width:0.264583px;stroke-linecap:butt;stroke-linejoin:miter;stroke-opacity:1"
       d="m 88.523814,191.42874 c 0,0 5.43286,-11.82448 23.648956,-15.97903 18.21609,-4.15454 30.04057,0.63916 30.04057,0.63916 0,0 -6.39161,12.46365 -26.84477,15.33987 -20.453146,2.87623 -26.844756,0 -26.844756,0 z"
       id="path7336" />
    <path
       style="fill:#000000;fill-opacity:1;stroke:#000000;stroke-width:0.264583px;stroke-linecap:butt;stroke-linejoin:miter;stroke-opacity:1"
       d="m 27.443478,296.53029 c 0,0 29.122279,-48.21621 75.461452,-47.57705 46.33918,0.63916 79.3296,47.48196 79.3296,47.48196"
       id="path8197" />
    <text
       xml:space="preserve"
       transform="matrix(0.26458333,0,0,0.26458333,15.339866,156.91405)"
       id="text10702"
       style="font-style:normal;font-weight:normal;font-size:96px;line-height:1.25;font-family:sans-serif;white-space:pre;shape-inside:url(#rect10704);fill:#f7f7f7;fill-opacity:1;stroke:none"><tspan
         x="230.70117"
         y="471.68527"
         id="tspan1543"><tspan
           style="font-weight:bold;font-family:'.Arabic UI Display';-inkscape-font-specification:'.Arabic UI Display Bold'"
           id="tspan1541">&gt; _</tspan></tspan></text>
  </g>
</svg>
